<?xml version="1.0" encoding="utf-8"?>
<!-- Generator: Adobe Illustrator 20.0.0, SVG Export Plug-In . SVG Version: 6.00 Build 0)  -->
<svg version="1.1" id="Layer_1" xmlns="http://www.w3.org/2000/svg" xmlns:xlink="http://www.w3.org/1999/xlink" x="0px" y="0px"
	 viewBox="0 0 347 244" style="enable-background:new 0 0 347 244;" xml:space="preserve">
<style type="text/css">
	.st0{fill:#002D73;}
	.st1{fill:#D68231;}
</style>
<g>
	<g>
		<path class="st0" d="M44.1,160.3c5.9-2.1,9.9-6.9,9.9-14.4c0-9.6-6.5-15.3-17.4-15.3H15.5v46.1h10.1V162h8l9.9,14.8h11.9
			L44.1,160.3z M35.9,153.1H25.6v-13.2h10.1c4.9,0,8,2.2,8,6.7C43.7,150.5,40.8,153.1,35.9,153.1z"/>
		<path class="st0" d="M114,176.8l-4.5-10.5h4.5v-8.8h-8.2l-11.6-27.1h-9.4L65,176.9h10.3l4.2-10.3H99l4.2,10.3H114V176.8z
			 M83.3,157.5l6.1-15l6.1,15H83.3z"/>
		<polygon class="st0" points="168.2,176.8 168.2,130.7 158.2,130.7 158.2,159.1 136.6,130.7 127.2,130.7 127.2,176.8 137.3,176.8 
			137.3,147.5 159.6,176.8 		"/>
		<path class="st0" d="M225.9,170.3v-20h-20v8.8h10.2v6.6c-2.6,1.8-5.9,2.8-9.6,2.8c-8.2,0-14-6.2-14-14.7c0-8,5.9-14.4,13.2-14.4
			c5.3,0,8.5,1.7,12.1,4.7l6.4-7.7c-4.8-4.1-9.8-6.3-18.1-6.3c-14,0-24.2,10.7-24.2,23.9c0,13.7,9.9,23.8,24.2,23.8
			C214.6,177.6,221.1,174.3,225.9,170.3z"/>
		<polygon class="st0" points="275.3,167.8 250.2,167.8 250.2,158.1 272,158.1 272,149.1 250.2,149.1 250.2,139.7 274.9,139.7 
			274.9,130.7 240.1,130.7 240.1,176.8 275.3,176.8 		"/>
		<path class="st0" d="M320.3,160.3c5.9-2.1,9.9-6.9,9.9-14.4c0-9.6-6.5-15.3-17.4-15.3h-21.1v46.1h10.1V162h8l9.9,14.8h11.8
			L320.3,160.3z M312.1,153.1h-10.3v-13.2h10.1c4.9,0,8,2.2,8,6.7C319.9,150.5,317,153.1,312.1,153.1z"/>
		<polygon class="st0" points="78.8,211.6 60.5,211.6 60.5,195.6 53.8,195.6 53.8,234 60.5,234 60.5,217.8 78.8,217.8 78.8,234 
			85.6,234 85.6,195.6 78.8,195.6 		"/>
		<polygon class="st0" points="106.6,217.7 125.8,217.7 125.8,211.6 106.6,211.6 106.6,201.7 128.3,201.7 128.3,195.6 99.8,195.6 
			99.8,234 128.6,234 128.6,228 106.6,228 		"/>
		<path class="st0" d="M160.8,195.4h-6.3L137.7,234h6.9l3.9-9.3h18.1l3.9,9.3h7.1l-4.1-9.4h4.1v-5.9h-6.7L160.8,195.4z M151,218.8
			l6.6-15.4l6.6,15.4H151z"/>
		<polygon class="st0" points="195.4,195.6 188.7,195.6 188.7,234 215.6,234 215.6,227.9 195.4,227.9 		"/>
		<polygon class="st0" points="218.8,201.9 230.9,201.9 230.9,234 237.7,234 237.7,201.9 249.9,201.9 249.9,195.6 218.8,195.6 		"/>
		<polygon class="st0" points="286.5,211.6 268.2,211.6 268.2,195.6 261.4,195.6 261.4,234 268.2,234 268.2,217.8 286.5,217.8 
			286.5,234 293.2,234 293.2,195.6 286.5,195.6 		"/>
	</g>
	<g>
		<path class="st1" d="M172,109.2c28,0,50.6-22.7,50.6-50.6c0-28-22.7-50.6-50.6-50.6c-28,0-50.6,22.7-50.6,50.6
			C121.4,86.6,144,109.2,172,109.2z M197.7,58.5l2.3,6.6l7,0.2l-5.6,4.2l2,6.7l-5.8-4l-5.8,4l2-6.7l-5.6-4.2l7-0.2L197.7,58.5z
			 M149.9,30.8h25.8c11,0,15.1,9.2,15.1,15.1c0,11.6-6.8,16-13.5,17.5v2.8c0,3.1,0.7,18.4,14.7,18.4v7.6c-15.4,0-22.3-13.1-22.3-26
			v-2h-12.2v19.3h-7.6V30.8z"/>
		<path class="st1" d="M169.7,46.5h7.6v9.1c5.9-2,5.9-6.8,5.9-9.7c0-0.1-0.1-7.5-7.5-7.5h-18.2v18.1h12.2V46.5z"/>
	</g>
</g>
</svg>
