<?xml version="1.0" encoding="utf-8"?>
<!-- Generator: Adobe Illustrator 20.0.0, SVG Export Plug-In . SVG Version: 6.00 Build 0)  -->
<svg version="1.1" id="Layer_1" xmlns="http://www.w3.org/2000/svg" xmlns:xlink="http://www.w3.org/1999/xlink" x="0px" y="0px"
	 viewBox="0 0 122.8 114.1" style="enable-background:new 0 0 122.8 114.1;" xml:space="preserve">
<style type="text/css">
	.st0{fill:#D68231;}
</style>
<g>
	<g>
		<path class="st0" d="M60.1,107.9c28,0,50.6-22.7,50.6-50.6c0-28-22.7-50.6-50.6-50.6c-28,0-50.6,22.7-50.6,50.6
			C9.5,85.3,32.1,107.9,60.1,107.9z M85.7,57.2l2.3,6.6l7,0.2l-5.6,4.2l2,6.7l-5.8-4l-5.8,4l2-6.7L76.2,64l7-0.2L85.7,57.2z
			 M38,29.5h25.8c11,0,15.1,9.2,15.1,15.1c0,11.6-6.8,16-13.5,17.5v2.8c0,3.1,0.7,18.4,14.7,18.4v7.6c-15.4,0-22.3-13.1-22.3-26v-2
			H45.6v19.3H38V29.5z"/>
		<path class="st0" d="M57.8,45.2h7.6v9.1c5.9-2,5.9-6.8,5.9-9.7c0-0.1-0.1-7.5-7.5-7.5H45.6v18.1h12.2
			C57.8,55.2,57.8,45.2,57.8,45.2z"/>
	</g>
</g>
</svg>
